<?xml version="1.0" encoding="utf-8"?>
<!-- Generator: Adobe Illustrator 22.1.0, SVG Export Plug-In . SVG Version: 6.00 Build 0)  -->
<svg version="1.1" id="Layer_1" xmlns="http://www.w3.org/2000/svg" xmlns:xlink="http://www.w3.org/1999/xlink" x="0px" y="0px"
	 viewBox="0 0 320 220" style="enable-background:new 0 0 320 220;" xml:space="preserve">
<style type="text/css">
	.st0{fill:#BD081C;}
	.st1{fill:#FFFFFF;}
</style>
<g>
	<path class="st0" d="M104.1,171.9c0,1.6-0.4,2.9-1.1,3.9s-1.7,1.4-2.9,1.4c-0.8,0-1.5-0.2-2.2-0.5s-1.1-0.8-1.4-1.3v5.7H96v-14.6
		h0.4l0.1,1.9c0.4-0.7,0.8-1.2,1.4-1.5s1.3-0.6,2.2-0.6c1.2,0,2.2,0.5,2.9,1.5s1.1,2.3,1.1,4V171.9z M103.6,171.7
		c0-1.5-0.3-2.7-0.9-3.6c-0.6-0.9-1.4-1.4-2.6-1.4c-1,0-1.8,0.3-2.4,0.8s-1,1.1-1.2,1.9v4.9c0.3,0.7,0.7,1.3,1.3,1.7
		c0.6,0.4,1.4,0.6,2.3,0.6c1.1,0,2-0.4,2.5-1.3S103.5,173.3,103.6,171.7L103.6,171.7L103.6,171.7z"/>
	<path class="st0" d="M113.6,175c-0.4,0.6-0.9,1.2-1.6,1.6s-1.6,0.6-2.6,0.6s-1.8-0.3-2.3-0.8s-0.8-1.3-0.8-2.2s0.4-1.6,1.3-2.2
		c0.8-0.6,1.9-0.9,3.1-0.9h3v-1.5c0-0.9-0.3-1.6-0.8-2.1c-0.6-0.5-1.4-0.7-2.4-0.7s-1.7,0.2-2.3,0.7c-0.6,0.5-0.9,1.1-0.9,1.8h-0.4
		l0,0c0-0.8,0.3-1.5,1-2.1s1.6-0.9,2.7-0.9s2,0.3,2.7,0.9c0.7,0.6,1,1.4,1,2.5v5.3c0,0.4,0,0.7,0.1,1.1s0.1,0.7,0.2,1H114
		c-0.1-0.5-0.1-0.8-0.2-1c0-0.2,0-0.5,0-0.7V175H113.6z M109.4,176.7c1,0,1.9-0.2,2.7-0.7c0.7-0.5,1.3-1.1,1.6-2v-2.4h-3
		c-1.1,0-2,0.3-2.8,0.8s-1.1,1.1-1.1,1.9c0,0.7,0.2,1.3,0.7,1.7C107.9,176.5,108.6,176.7,109.4,176.7z"/>
	<path class="st0" d="M117,171.7c0-1.7,0.4-3,1.1-4s1.7-1.5,2.9-1.5c0.8,0,1.5,0.2,2.1,0.6s1.1,0.9,1.4,1.5l0.1-1.9h0.4V177
		c0,1.3-0.4,2.4-1.1,3.1s-1.7,1.1-2.9,1.1c-0.5,0-1-0.1-1.6-0.2s-1-0.3-1.5-0.4l0.2-0.5c0.5,0.2,0.9,0.4,1.4,0.5
		c0.4,0.1,0.9,0.2,1.5,0.2c1.1,0,2-0.3,2.6-1s0.9-1.5,0.9-2.7v-1.7c-0.4,0.6-0.8,1-1.5,1.3c-0.6,0.3-1.3,0.5-2.1,0.5
		c-1.2,0-2.2-0.5-2.9-1.4c-0.7-1-1-2.2-1-3.9V171.7z M117.6,171.9c0,1.5,0.3,2.6,0.9,3.5s1.4,1.3,2.5,1.3c0.9,0,1.7-0.2,2.3-0.6
		c0.6-0.4,1-1,1.3-1.7v-5c-0.3-0.7-0.7-1.4-1.2-1.9c-0.6-0.5-1.3-0.8-2.3-0.8c-1.1,0-2,0.5-2.6,1.4s-0.9,2.1-0.9,3.6
		C117.6,171.7,117.6,171.9,117.6,171.9z"/>
	<path class="st0" d="M132.1,177.2c-1.2,0-2.2-0.5-3.1-1.5c-0.9-1-1.3-2.2-1.3-3.6v-0.6c0-1.5,0.4-2.8,1.3-3.8
		c0.8-1,1.9-1.5,3.1-1.5c1.2,0,2.2,0.4,2.9,1.2s1.1,1.8,1.1,3.1v0.8h-7.9v0.1v0.6c0,1.3,0.4,2.4,1.1,3.2c0.7,0.9,1.7,1.3,2.8,1.3
		c0.8,0,1.4-0.1,2-0.3s1-0.5,1.4-1l0.3,0.4c-0.4,0.5-0.9,0.8-1.5,1C133.6,177.1,132.9,177.2,132.1,177.2z M132.1,166.8
		c-1,0-1.9,0.4-2.6,1.1c-0.7,0.8-1.1,1.7-1.2,2.9v0.1h7.3v-0.3c0-1.1-0.3-2-1-2.7S133.1,166.8,132.1,166.8z"/>
	<path class="st0" d="M143.8,166.4l0.1,2.2c0.3-0.8,0.8-1.3,1.4-1.8c0.6-0.4,1.4-0.6,2.3-0.6c1.2,0,2,0.4,2.6,1.1
		c0.6,0.7,0.9,1.9,0.9,3.5v6.2h-0.5v-6.2c0-1.5-0.3-2.5-0.8-3.1s-1.2-0.9-2.1-0.9c-1.1,0-2,0.3-2.6,1s-0.9,1.6-1.1,2.6v6.6h-0.5
		v-10.6H143.8z"/>
	<path class="st0" d="M153.5,171.5c0-1.5,0.4-2.8,1.3-3.8c0.9-1,2-1.5,3.3-1.5c1.4,0,2.5,0.5,3.3,1.5c0.9,1,1.3,2.2,1.3,3.8v0.4
		c0,1.6-0.4,2.8-1.3,3.8c-0.9,1-2,1.5-3.3,1.5c-1.4,0-2.5-0.5-3.3-1.5c-0.9-1-1.3-2.3-1.3-3.8V171.5z M154,171.9
		c0,1.3,0.4,2.5,1.1,3.4c0.7,0.9,1.7,1.4,3,1.4c1.2,0,2.2-0.5,3-1.4c0.7-0.9,1.1-2,1.1-3.4v-0.4c0-1.3-0.4-2.4-1.1-3.3
		c-0.7-0.9-1.7-1.4-3-1.4c-1.2,0-2.2,0.5-3,1.4c-0.7,0.9-1.1,2-1.1,3.3V171.9z"/>
	<path class="st0" d="M166.3,163.6v2.9h2.6v0.5h-2.6v7.3c0,0.9,0.1,1.5,0.4,1.9c0.3,0.4,0.7,0.6,1.2,0.6c0.2,0,0.3,0,0.5,0
		c0.1,0,0.3,0,0.6-0.1l0.1,0.5c-0.2,0.1-0.3,0.1-0.5,0.1s-0.4,0-0.6,0c-0.7,0-1.2-0.2-1.6-0.7c-0.4-0.5-0.6-1.2-0.6-2.2V167h-2v-0.5
		h2v-2.9H166.3z"/>
	<path class="st0" d="M177,177v-10h-1.8v-0.5h1.8v-1.7c0-1,0.2-1.8,0.7-2.3s1.2-0.8,2-0.8c0.2,0,0.4,0,0.6,0c0.2,0,0.4,0.1,0.6,0.1
		l-0.1,0.5c-0.2-0.1-0.4-0.1-0.6-0.1c-0.2,0-0.4,0-0.6,0c-0.7,0-1.3,0.2-1.7,0.7s-0.6,1.1-0.6,1.9v1.7h2.8v0.5h-2.8v10L177,177
		L177,177z"/>
	<path class="st0" d="M181.7,171.5c0-1.5,0.4-2.8,1.3-3.8c0.9-1,2-1.5,3.3-1.5c1.4,0,2.5,0.5,3.3,1.5c0.9,1,1.3,2.2,1.3,3.8v0.4
		c0,1.6-0.4,2.8-1.3,3.8c-0.9,1-2,1.5-3.3,1.5c-1.4,0-2.5-0.5-3.3-1.5c-0.9-1-1.3-2.3-1.3-3.8V171.5z M182.2,171.9
		c0,1.3,0.4,2.5,1.1,3.4c0.7,0.9,1.7,1.4,3,1.4c1.2,0,2.2-0.5,3-1.4c0.7-0.9,1.1-2,1.1-3.4v-0.4c0-1.3-0.4-2.4-1.1-3.3
		c-0.7-0.9-1.7-1.4-3-1.4c-1.2,0-2.2,0.5-3,1.4c-0.7,0.9-1.1,2-1.1,3.3V171.9z"/>
	<path class="st0" d="M200.6,175.1c-0.3,0.7-0.8,1.2-1.4,1.6c-0.6,0.4-1.4,0.5-2.2,0.5c-1.1,0-1.9-0.4-2.6-1.2s-0.9-2-0.9-3.6v-6
		h0.5v6c0,1.4,0.3,2.5,0.8,3.2s1.2,1,2.1,1c1.1,0,1.9-0.3,2.5-0.8s1-1.3,1.1-2.1v-7.3h0.5V177h-0.4L200.6,175.1z"/>
	<path class="st0" d="M204.9,166.4l0.1,2.2c0.3-0.8,0.8-1.3,1.4-1.8c0.6-0.4,1.4-0.6,2.3-0.6c1.2,0,2,0.4,2.6,1.1
		c0.6,0.7,0.9,1.9,0.9,3.5v6.2h-0.5v-6.2c0-1.5-0.3-2.5-0.8-3.1s-1.2-0.9-2.1-0.9c-1.1,0-2,0.3-2.6,1s-0.9,1.6-1.1,2.6v6.6h-0.5
		v-10.6H204.9z"/>
	<path class="st0" d="M214.9,171.7c0-1.7,0.4-3,1.1-4s1.7-1.5,2.9-1.5c0.8,0,1.5,0.2,2.1,0.6s1.1,0.9,1.4,1.5v-6.6h0.5V177h-0.5
		v-1.6c-0.4,0.6-0.8,1-1.5,1.3s-1.3,0.5-2.2,0.5c-1.2,0-2.2-0.5-2.9-1.4c-0.7-1-1-2.2-1-3.9L214.9,171.7L214.9,171.7z M215.4,171.9
		c0,1.5,0.3,2.6,0.9,3.5s1.4,1.3,2.5,1.3c0.9,0,1.7-0.2,2.3-0.6c0.6-0.4,1-1,1.3-1.7v-5c-0.3-0.8-0.7-1.4-1.2-1.9
		c-0.6-0.5-1.4-0.8-2.4-0.8c-1.1,0-2,0.5-2.6,1.4s-0.9,2.1-0.9,3.6L215.4,171.9L215.4,171.9z"/>
</g>
<g>
	<path class="st0" d="M138.1,195.3c0-0.6-0.2-1.1-0.7-1.5s-1.3-0.8-2.5-1.1c-1.3-0.3-2.2-0.6-2.7-1s-0.8-1-0.8-1.9
		c0-0.8,0.3-1.4,1-1.9c0.6-0.5,1.5-0.8,2.6-0.8c1.2,0,2.1,0.3,2.8,0.8s1,1.3,1,2.1v0.1h-0.4c0-0.7-0.3-1.3-0.9-1.8
		c-0.6-0.5-1.4-0.7-2.4-0.7s-1.7,0.2-2.2,0.6c-0.5,0.4-0.8,0.9-0.8,1.5s0.2,1,0.6,1.4s1.3,0.7,2.6,1c1.2,0.3,2.1,0.6,2.7,1.1
		c0.6,0.5,0.9,1.1,0.9,2c0,0.8-0.3,1.5-1,2s-1.6,0.8-2.7,0.8c-1.2,0-2.2-0.3-2.9-0.8c-0.7-0.6-1-1.2-1-2v-0.1h0.4
		c0.1,0.8,0.4,1.4,1.1,1.8s1.4,0.6,2.4,0.6s1.8-0.2,2.3-0.7C137.9,196.4,138.1,195.9,138.1,195.3z"/>
	<path class="st0" d="M140.8,192.4c0-1.5,0.4-2.8,1.3-3.8c0.9-1,2-1.5,3.3-1.5c1.4,0,2.5,0.5,3.3,1.5c0.9,1,1.3,2.2,1.3,3.8v0.4
		c0,1.6-0.4,2.8-1.3,3.8c-0.9,1-2,1.5-3.3,1.5c-1.4,0-2.5-0.5-3.3-1.5c-0.9-1-1.3-2.3-1.3-3.8V192.4z M141.3,192.8
		c0,1.3,0.4,2.5,1.1,3.4c0.7,0.9,1.7,1.4,3,1.4c1.2,0,2.2-0.5,3-1.4c0.7-0.9,1.1-2,1.1-3.4v-0.4c0-1.3-0.4-2.4-1.1-3.3
		c-0.7-0.9-1.7-1.4-3-1.4c-1.2,0-2.2,0.5-3,1.4c-0.7,0.9-1.1,2-1.1,3.3V192.8z"/>
	<path class="st0" d="M157.2,187.7l-0.7-0.1c-0.9,0-1.7,0.3-2.3,0.9c-0.6,0.6-1,1.4-1.1,2.4v6.9h-0.5v-10.6h0.4l0.1,1.8v0.4
		c0.3-0.8,0.7-1.3,1.3-1.8s1.3-0.6,2.1-0.6c0.1,0,0.3,0,0.4,0c0.1,0,0.2,0,0.3,0.1V187.7z"/>
	<path class="st0" d="M163.9,187.7l-0.7-0.1c-0.9,0-1.7,0.3-2.3,0.9c-0.6,0.6-1,1.4-1.1,2.4v6.9h-0.5v-10.6h0.4l0.1,1.8v0.4
		c0.3-0.8,0.7-1.3,1.3-1.8c0.6-0.4,1.3-0.6,2.1-0.6c0.1,0,0.3,0,0.4,0c0.1,0,0.2,0,0.3,0.1V187.7z"/>
	<path class="st0" d="M168.8,196l0.4,1.1h0.1l0.1-0.2l3.7-9.6h0.6l-4.7,12.3c-0.3,0.7-0.6,1.3-1,1.8s-1,0.7-1.8,0.7
		c-0.1,0-0.3,0-0.4,0c-0.1,0-0.3,0-0.3-0.1l0.1-0.5c0.1,0,0.2,0,0.3,0.1s0.3,0,0.3,0c0.6,0,1.1-0.2,1.4-0.5s0.6-0.9,0.9-1.6l0.6-1.7
		l-4.2-10.5h0.6L168.8,196z"/>
	<path class="st0" d="M180.9,188.6h-0.8v-1.3h0.8V188.6z M180.9,197.9h-0.8v-1.3h0.8V197.9z"/>
	<path class="st0" d="M183.7,192.2c0-2.2,0.4-4.3,1.2-6.2s1.7-3.2,2.8-3.9h0.1l0.2,0.4c-1,0.7-1.9,1.9-2.6,3.8s-1.1,3.8-1.1,5.9v0.3
		c0,2.1,0.4,4,1.1,5.9s1.6,3.1,2.6,3.8l-0.2,0.4h-0.1c-1.1-0.7-2.1-2-2.8-3.8c-0.8-1.9-1.2-3.9-1.2-6.2V192.2z"/>
</g>
<path class="st1" d="M160.6,158.2c0-0.6-0.5-1.1-1.1-1.2c-0.7,0-1.2,0.4-1.2,1.1c0,0.6,0.5,1.2,1.1,1.2
	C160.1,159.4,160.6,158.8,160.6,158.2z"/>
<path class="st1" d="M160.6,158.2c0-0.6-0.5-1.1-1.1-1.2c-0.7,0-1.2,0.4-1.2,1.1c0,0.6,0.5,1.2,1.1,1.2
	C160.1,159.4,160.6,158.8,160.6,158.2z"/>
<g>
	<path class="st0" d="M103.3,96.6h11.9v2.5h-11.9v18.8h-2.5V99.1H67.3v-1.5L100.2,49h3.1V96.6z M71.3,96.6h29.5v-44l-0.3-0.1
		l-3.7,6.1L71.3,96.6z"/>
	<path class="st0" d="M238.6,96.6h11.9v2.5h-11.9v18.8h-2.5V99.1h-33.5v-1.5L235.5,49h3.1V96.6z M206.6,96.6h29.5v-44l-0.3-0.1
		l-3.7,6.1L206.6,96.6z"/>
</g>
<circle class="st0" cx="158.5" cy="83.5" r="35.5"/>
<g>
	<g>
		<path class="st1" d="M159.2,59.1c2.5,0,5.1,0,7.6,0c1.4,0,2.3,0.6,2.7,2c0.4,1.4-0.1,2.7-1.4,3.1c-3.5,1.1-3.9,3.9-3.8,6.8
			c0,2.6,0,5.2,0.1,7.8c0,2.4,1.1,4.2,3.5,5.1c0.8,0.3,1.6,0.6,2.3,1.1c0.9,0.7,2,1.4,2.5,2.3c1.6,2.6,0.8,3.9-2.2,3.9
			c-2.7,0-5.3,0.1-8,0c-1.6-0.1-2.1,0.4-2.1,2.1c-0.1,4.7-0.4,9.5-0.7,14.2c0,0.5-0.3,1.1-0.5,1.6c-0.2-0.5-0.6-1.1-0.6-1.6
			c-0.3-4.7-0.6-9.3-0.7-14c0-1.7-0.6-2.3-2.3-2.2c-2.9,0.1-5.9,0-8.8,0c-1.9,0-2.3-0.4-1.8-2.4c0.4-1.8,1.4-3.1,3-3.9
			c0.9-0.4,1.8-0.8,2.7-1.2c1.9-0.9,3.1-2.3,3.1-4.5c0-3.5,0-7,0-10.5c0-2-0.9-3.4-2.9-4.2c-0.8-0.3-1.6-1-2-1.7
			c-1-1.8,0.3-3.7,2.5-3.7C154,59,156.6,59,159.2,59.1C159.2,59.1,159.2,59.1,159.2,59.1z"/>
	</g>
</g>
</svg>
