<?xml version="1.0" encoding="utf-8"?>
<!-- Generator: Adobe Illustrator 22.1.0, SVG Export Plug-In . SVG Version: 6.00 Build 0)  -->
<svg version="1.1" id="Layer_1" xmlns="http://www.w3.org/2000/svg" xmlns:xlink="http://www.w3.org/1999/xlink" x="0px" y="0px"
	 viewBox="0 0 144 144" style="enable-background:new 0 0 144 144;" xml:space="preserve">
<style type="text/css">
	.st0{fill:none;}
	.st1{fill:#BD2026;}
</style>
<g>
	<path class="st0" d="M71,72.6c0.3,2.1,0.7,4.2,1.3,6.2c0.6-2,1-4.1,1.3-6.2c0.6-4.5,0.1-8.7-1.3-12.4C70.8,63.9,70.3,68.1,71,72.6z
		"/>
	<path class="st0" d="M92.4,53.5c7.4-3.2,16.8-1.3,22.2,4.4c4.2,4.5,5.9,9.9,4.8,15.9c-0.3,1.7-1.3,3.3-2.2,4.8
		c-0.5,0.9-0.9,1.7-0.5,2.7c0.3,0.8,0.4,1.7,0.7,2.6c0.4,1.4,1,1.7,2.4,1.1c2.9-1.3,5-3.5,6.1-6.5c3-7.5,2-14.7-2.4-21.4
		c-4.4-6.7-10.9-10.3-18.8-11.5c-5.3-0.8-10.5-0.5-15.5,1.4c-1.9,0.7-3.7,1.7-5.3,2.8c1.4,2.2,2.7,4.6,3.7,7
		C88.8,55.4,90.4,54.3,92.4,53.5z"/>
	<path class="st0" d="M40,45.7c-7.8,1.2-14.3,4.8-18.8,11.5c-4.4,6.7-5.4,13.8-2.4,21.4c1.2,2.9,3.2,5.1,6.1,6.5
		c1.3,0.6,2,0.3,2.4-1.1c0.2-0.8,0.4-1.7,0.7-2.6c0.3-1,0-1.8-0.5-2.7c-0.9-1.5-1.9-3.1-2.2-4.8c-1.1-6.1,0.6-11.5,4.8-15.9
		c5.4-5.8,14.9-7.6,22.2-4.4c2,0.9,3.6,2,4.9,3.4c1-2.4,2.2-4.8,3.7-7c-1.6-1.1-3.3-2-5.3-2.8C50.5,45.1,45.3,44.8,40,45.7z"/>
	<path class="st1" d="M139.6,79.3c-2.8,13-10.2,22.4-22.1,28.2c-0.2,0.1-0.3,0.2-0.5,0.2c-0.1,0-0.2,0-0.2,0c0-10-3.7-19.4-5.5-29.1
		c-0.2-0.8-0.1-1.8,0.1-2.6c1-3.5,1.2-6.9-0.3-10.3c-0.7-1.7-1.8-3.1-3.4-4.1c-4-2.4-8.4-0.1-8.5,4.5c0,1.9,0.4,3.8,0.9,5.7
		c0.7,2.7,1.5,5.4,2.4,8.1c1.7,5.3-2.7,9.5-8.2,8.1c-2.5-0.7-4.4-2.2-5.8-4.2c-0.2-0.3-0.5-0.7-0.7-1c-2.1-3.3-3.2-7-3.6-10.9
		c-0.2-2.5-0.4-5,0-7.5c0.4-3,1.6-5.5,3.4-7.5c1.3-1.4,2.9-2.5,4.9-3.4c7.4-3.2,16.8-1.3,22.2,4.4c4.2,4.5,5.9,9.9,4.8,15.9
		c-0.3,1.7-1.3,3.3-2.2,4.8c-0.5,0.9-0.9,1.7-0.5,2.7c0.3,0.8,0.4,1.7,0.7,2.6c0.4,1.4,1,1.7,2.4,1.1c2.9-1.3,5-3.5,6.1-6.5
		c3-7.5,2-14.7-2.4-21.4c-4.4-6.7-10.9-10.3-18.8-11.5c-5.3-0.8-10.5-0.5-15.5,1.4c-1.9,0.7-3.7,1.7-5.3,2.8
		c-3.8,2.6-8.6,8.7-11.6,10.3c-3.2-1.8-7.8-7.7-11.6-10.3c-1.6-1.1-3.3-2-5.3-2.8c-5-1.9-10.2-2.2-15.5-1.4
		c-7.8,1.2-14.3,4.8-18.8,11.5c-4.4,6.7-5.4,13.8-2.4,21.4c1.2,2.9,3.2,5.1,6.1,6.5c1.3,0.6,2,0.3,2.4-1.1c0.2-0.8,0.4-1.7,0.7-2.6
		c0.3-1,0-1.8-0.5-2.7c-0.9-1.5-1.9-3.1-2.2-4.8c-1.1-6.1,0.6-11.5,4.8-15.9c5.4-5.8,14.9-7.6,22.2-4.4c2,0.9,3.6,2,4.9,3.4
		c1.9,2,3.1,4.5,3.4,7.5c0.3,2.5,0.2,5,0,7.5c-0.4,3.9-1.5,7.6-3.6,10.9c-0.2,0.3-0.5,0.7-0.7,1c-1.5,2-3.3,3.6-5.8,4.2
		c-5.5,1.4-9.9-2.8-8.2-8.1c0.8-2.7,1.7-5.4,2.4-8.1c0.5-1.9,0.9-3.8,0.9-5.7c0-4.6-4.5-7-8.5-4.5c-1.6,1-2.7,2.4-3.4,4.1
		c-1.4,3.4-1.3,6.9-0.3,10.3c0.2,0.8,0.3,1.8,0.1,2.6c-1.8,9.7-5.5,19-5.5,29.1c-0.1,0-0.2,0-0.2,0c-0.2-0.1-0.3-0.1-0.5-0.2
		C15.3,101.6,7.9,92.2,5,79.3c-0.1-0.6-0.8-3.8-0.8-7c-0.1-3,0.5-6.2,0.5-6.5c2.5-16.7,15-29.8,31.6-33.2c1-0.2,1.9-0.5,2.8-0.7
		c3,0,6,0,9,0c0.2,0.1,0.4,0.2,0.6,0.3c7.7,1,18,4.1,23.5,8.6c5.5-4.5,15.8-7.6,23.5-8.6c0.2,0,0.4-0.2,0.6-0.3c3,0,6,0,9,0
		c0.9,0.2,1.9,0.5,2.8,0.7c16.6,3.3,29.1,16.4,31.6,33.2c0,0.2,0.6,3.6,0.5,6.5C140.4,75.6,139.7,78.7,139.6,79.3z M95.2,95.1
		c-4.1-0.1-7.5-1.2-10.5-3.3c-2.2-1.5-4.1-3.5-5.7-5.9c-1.2-1.8-3.9-4.8-5.9-5.7c-0.6-0.3-1-0.3-1.5,0c-2.3,1.4-4.7,3.9-5.9,5.7
		c-1.6,2.4-3.5,4.4-5.7,5.9c-3,2-6.4,3.2-10.5,3.3c-4.1,0.1-7.3-1.5-10-4.7c-1.9,6.5-2.7,13.4-6.8,19.2c4.5,1.4,9,2,13.5,1.6
		c9-0.8,20.1-3.6,26.2-8.6c6.1,5,17.2,7.9,26.2,8.6c4.5,0.4,9-0.2,13.5-1.6c-4.2-5.8-4.9-12.7-6.8-19.2
		C102.5,93.6,99.3,95.2,95.2,95.1z"/>
</g>
<ellipse class="st0" cx="99.5" cy="71.7" rx="41" ry="39.5"/>
</svg>
