<?xml version="1.0" encoding="utf-8"?>
<!-- Generator: Adobe Illustrator 22.1.0, SVG Export Plug-In . SVG Version: 6.00 Build 0)  -->
<svg version="1.1" id="Layer_1" xmlns="http://www.w3.org/2000/svg" xmlns:xlink="http://www.w3.org/1999/xlink" x="0px" y="0px"
	 viewBox="0 0 144 144" style="enable-background:new 0 0 144 144;" xml:space="preserve">
<style type="text/css">
	.st0{fill:#FFFFFF;}
</style>
<g>
	<g>
		<path class="st0" d="M72.2,23.4c5.5,0,10.9,0,16.4,0c3,0,5,1.2,5.8,4.3c0.8,3-0.3,5.7-3,6.6c-7.5,2.4-8.3,8.3-8.2,14.7
			c0,5.6,0.1,11.2,0.2,16.8c0.1,5.3,2.3,9.1,7.5,10.9c1.7,0.6,3.5,1.2,4.9,2.3c2,1.4,4.2,3,5.4,5c3.4,5.7,1.7,8.3-4.7,8.4
			c-5.7,0-11.5,0.2-17.2-0.1c-3.4-0.1-4.5,0.8-4.6,4.4c-0.2,10.2-0.9,20.4-1.5,30.5c-0.1,1.2-0.7,2.3-1.1,3.4
			c-0.5-1.2-1.3-2.3-1.4-3.5c-0.6-10-1.3-20.1-1.5-30.1c-0.1-3.7-1.2-4.8-4.9-4.7c-6.3,0.3-12.6,0.1-18.9,0.1c-4.2,0-4.9-0.9-4-5.1
			c0.8-3.8,2.9-6.6,6.5-8.3c1.9-0.9,3.8-1.7,5.8-2.5c4.2-1.9,6.7-4.9,6.7-9.7c0-7.5,0-15.1,0-22.6c0-4.4-2-7.3-6.2-9
			c-1.7-0.7-3.5-2.1-4.3-3.7c-2-3.9,0.7-7.9,5.4-8C61,23.3,66.6,23.4,72.2,23.4C72.2,23.4,72.2,23.4,72.2,23.4z"/>
	</g>
</g>
</svg>
